<?xml version="1.0" encoding="UTF-8"?>
<svg version="1.1" xmlns="http://www.w3.org/2000/svg" width="532" height="347">
<path d="M0 0 C175.56 0 351.12 0 532 0 C532 114.51 532 229.02 532 347 C356.44 347 180.88 347 0 347 C0 232.49 0 117.98 0 0 Z " fill="#FEFEFE" transform="translate(0,0)"/>
<path d="M0 0 C20.46 0 40.92 0 62 0 C62 14.52 62 29.04 62 44 C68.93 45.485 68.93 45.485 76 47 C89.46144205 51.43435738 100.49356663 60.74373016 107.0625 73.4375 C108.43829474 76.32342634 109 77.76552297 109 81 C113.5630118 79.19601859 116.39874757 77.13537104 119.09765625 73.1171875 C120.76726052 69.19976104 120.37739415 65.16810876 120 61 C119.13375 61.66 118.2675 62.32 117.375 63 C113.69403762 65.18131104 112.16955568 65.88713951 108 65 C104.84636403 62.12059325 103.25220464 60.12345701 102.3125 55.9375 C103.09373628 52.59949043 104.3200971 50.96372208 107.06640625 48.90234375 C110.59492184 47.25570314 114.2021164 47.62021164 118 48 C116.18221573 44.10336669 114.44839977 40.56049971 111.75 37.1875 C110 35 110 35 110 32 C113.82210973 32.53879961 115.27023878 34.01246154 117.625 37 C120.60267276 40.97023035 121.77865821 44.15767351 122.54296875 49.00390625 C123.22090049 51.96478763 125.04252047 53.73666429 127 56 C129.75843068 61.93062597 130.26593567 68.52498138 128.01953125 74.69140625 C122.49406703 86.09936468 122.49406703 86.09936468 117.75 87.8125 C117.1725 87.874375 116.595 87.93625 116 88 C116 88.66 116 89.32 116 90 C114.515 90.99 114.515 90.99 113 92 C113.2165625 93.29164063 113.433125 94.58328125 113.65625 95.9140625 C117.53394071 121.22593568 119.05386048 149.16504138 112 174 C111.65764429 175.36102545 111.31903938 176.72300043 110.984375 178.0859375 C109.07013177 185.45425468 107.24829759 191.49610394 101 196.3125 C96.04471543 199.09984757 91.67137356 199.47703142 86 199 C84.7625 198.62875 83.525 198.2575 82.25 197.875 C79.15583873 196.6838438 79.15583873 196.6838438 76.9375 197.875 C76.298125 198.24625 75.65875 198.6175 75 199 C71.14190924 199.50322923 69.3061797 199.15609161 65.8125 197.375 C60.91392366 193.23842442 59.60894216 188.19831128 58.375 182.0625 C58.13523437 180.89847656 57.89546875 179.73445312 57.6484375 178.53515625 C57.00716013 175.03903565 56.50267476 171.51872335 56 168 C33.89 168 11.78 168 -11 168 C-11.66 171.63 -12.32 175.26 -13 179 C-13.68187841 181.64351411 -14.42473988 184.27267974 -15.25 186.875 C-15.81460938 188.72738281 -15.81460938 188.72738281 -16.390625 190.6171875 C-18.26313519 194.55309484 -20.12719092 197.02967817 -24 199 C-28.11676441 199.73368474 -32.17928944 199.67289132 -36.35180664 199.63110352 C-38.21375923 199.64183647 -38.21375923 199.64183647 -40.11332703 199.65278625 C-43.50631321 199.66677104 -46.8977689 199.65839421 -50.29062963 199.63869596 C-53.84638541 199.62227257 -57.40209269 199.63112729 -60.95787048 199.63621521 C-66.92720091 199.6407315 -72.8962175 199.62489407 -78.86547852 199.59692383 C-85.76165129 199.56485901 -92.65725863 199.56489465 -99.55347162 199.5821386 C-106.19570238 199.59801391 -112.83772631 199.59126473 -119.47994804 199.57420158 C-122.3032426 199.56733845 -125.12637099 199.56835579 -127.94966316 199.57574654 C-131.89252329 199.58484512 -135.83480447 199.56085184 -139.77758789 199.53344727 C-141.53182571 199.54323608 -141.53182571 199.54323608 -143.32150269 199.55322266 C-151.22890931 199.45964366 -151.22890931 199.45964366 -155.20140076 197.09165955 C-157.99779529 193.83962586 -158.12332586 192.03012006 -158.11352539 187.81591797 C-158.11340454 186.71981201 -158.11328369 185.62370605 -158.11315918 184.49438477 C-158.10804321 183.33865967 -158.10292725 182.18293457 -158.09765625 180.9921875 C-158.09664917 179.93265869 -158.09564209 178.87312988 -158.09460449 177.78149414 C-158.08936107 173.8126518 -158.07539988 169.84382484 -158.0625 165.875 C-158.041875 157.00625 -158.02125 148.1375 -158 139 C-138.2 139 -118.4 139 -98 139 C-98 133.06 -98 127.12 -98 121 C-96.67221867 114.36109336 -95.51156479 109.17804595 -91 104 C-87.99163972 103.34000259 -85.76143871 103.07035593 -82.75 103.0625 C-81.66138672 103.01899414 -81.66138672 103.01899414 -80.55078125 102.97460938 C-75.60580216 102.82916881 -70.89129054 103.2862257 -66 104 C-65.938125 102.80375 -65.87625 101.6075 -65.8125 100.375 C-63.78080783 82.64639848 -53.31973175 66.43644895 -39.79296875 55.16015625 C-38 54 -38 54 -36 54 C-36 53.34 -36 52.68 -36 52 C-35.34 51.67 -34.68 51.34 -34 51 C-35.30535833 46.64880556 -37.04517124 42.8105773 -39.1953125 38.83203125 C-40 37 -40 37 -40 34 C-33.605851 33.65263174 -28.70446811 33.72521275 -23 37 C-21.83101067 38.24782814 -20.66452806 39.49800739 -19.5 40.75 C-13.89190423 45.52851558 -13.89190423 45.52851558 0 43 C0 28.81 0 14.62 0 0 Z " fill="#E5E5E5" transform="translate(245,57)"/>
<path d="M0 0 C32.67 0.33 65.34 0.66 99 1 C99 36.97 99 72.94 99 110 C60.39 110 21.78 110 -18 110 C-16.68 108.68 -15.36 107.36 -14 106 C-13.34 106 -12.68 106 -12 106 C-2.43918247 88.34925995 -0.43864823 67.19768231 -0.625 47.5 C-0.62898804 46.27455475 -0.62898804 46.27455475 -0.63305664 45.02435303 C-0.68690303 30.85619558 -1.72099747 17.00131871 -4 3 C-2.68 2.67 -1.36 2.34 0 2 C0 1.34 0 0.68 0 0 Z " fill="#EBE7FD" transform="translate(361,145)"/>
<path d="M0 0 C0 6.6 0 13.2 0 20 C-2.97 20.66 -5.94 21.32 -9 22 C-13.81184725 25.29700645 -17.14276598 28.46546261 -18.5390625 34.22265625 C-19.55141167 40.64412601 -18.78878204 45.63426543 -15 51 C-10.77301634 55.04024944 -6.82576491 57.65398797 -0.9375 58.375 C5.46379768 57.7653526 10.73445782 55.03898797 15.5 50.75 C17.6225443 47.16068332 17.6225443 47.16068332 19 39 C33.19 39 47.38 39 62 39 C62 26.46 62 13.92 62 1 C76.13371505 6.65348602 83.28528661 13.14704587 90.8125 26.125 C95.48541201 37.43836592 95.62478814 49.81261494 91.2734375 61.27734375 C89.2831704 65.53260808 86.82089836 69.25688487 84 73 C83.4225 73.86625 82.845 74.7325 82.25 75.625 C73.61009087 84.74490408 61.58773176 90.01140834 49.07739258 90.63110352 C46.68324397 90.65686686 44.28867372 90.65523375 41.89453125 90.62890625 C40.60866623 90.63131821 39.32280121 90.63373016 37.99797058 90.63621521 C35.30276003 90.63904246 32.60839469 90.62467466 29.91333008 90.59692383 C26.4907989 90.56274035 23.06976487 90.56892213 19.64716053 90.5875864 C16.33364057 90.60079718 13.0205408 90.58241492 9.70703125 90.56640625 C8.49529739 90.57136612 7.28356354 90.57632599 6.03511047 90.58143616 C-7.15228071 90.40065783 -19.15873963 85.77834946 -28.8125 76.625 C-38.0149313 66.68810235 -41.66439335 54.73845879 -41.54272461 41.31884766 C-40.98450332 28.43166063 -34.89253505 18.47215468 -25.75 9.8125 C-17.80727459 2.98525041 -10.38548573 0 0 0 Z " fill="#525251" transform="translate(245,122)"/>
<path d="M0 0 C3.48012576 0.19334032 4.73611211 0.71282789 7.125 3.3125 C15.38133239 17.74430051 13.31306327 38.24555705 10.046875 53.94140625 C8.84313945 57.45829035 7.27868328 60.06964783 5 63 C2.25 63.875 2.25 63.875 0 64 C-0.99 62.02 -0.99 62.02 -2 60 C-20.15 60 -38.3 60 -57 60 C-57 64.62 -57 69.24 -57 74 C-35.88 74 -14.76 74 7 74 C7 70.7 7 67.4 7 64 C12.94 64 18.88 64 25 64 C25 67.3 25 70.6 25 74 C27.64 74 30.28 74 33 74 C33.24234375 74.88042969 33.4846875 75.76085937 33.734375 76.66796875 C34.06953125 77.82941406 34.4046875 78.99085938 34.75 80.1875 C35.07484375 81.33605469 35.3996875 82.48460937 35.734375 83.66796875 C37.37492033 87.98705877 39.76917027 90.76917027 43 94 C29.24848978 94.11574903 15.49709507 94.20464222 1.7451973 94.25906086 C-4.64009533 94.28517653 -11.02505517 94.32061164 -17.41015625 94.37719727 C-23.56987029 94.43144509 -29.72926385 94.46140568 -35.8891983 94.47438622 C-38.24162086 94.48363897 -40.59402549 94.50170711 -42.94631195 94.52865028 C-46.23640622 94.56484312 -49.52516902 94.56994925 -52.81542969 94.56762695 C-53.79222687 94.58560333 -54.76902405 94.60357971 -55.77542114 94.62210083 C-62.3188607 94.57198359 -62.3188607 94.57198359 -65.6081543 91.80981445 C-67.13007349 88.73741172 -67.48605337 86.8861975 -67.45410156 83.4753418 C-67.45361816 82.37959839 -67.45313477 81.28385498 -67.45263672 80.15490723 C-67.43217285 79.01453003 -67.41170898 77.87415283 -67.390625 76.69921875 C-67.38659668 75.64271118 -67.38256836 74.58620361 -67.37841797 73.49768066 C-67.35753029 69.56077647 -67.30168479 65.62412033 -67.25 61.6875 C-67.1675 52.880625 -67.085 44.07375 -67 35 C-47.2 35 -27.4 35 -7 35 C-7 29.06 -7 23.12 -7 17 C-5.64694805 10.23474026 -4.22761962 5.39385951 0 0 Z " fill="#8BBCB9" transform="translate(154,161)"/>
<path d="M0 0 C20.46 0 40.92 0 62 0 C62 16.5 62 33 62 50 C63.65 50 65.3 50 67 50 C67.495 53.96 67.495 53.96 68 58 C43.91 58 19.82 58 -5 58 C-5.33 55.36 -5.66 52.72 -6 50 C-4.02 50 -2.04 50 0 50 C0 33.5 0 17 0 0 Z " fill="#C9F1EE" transform="translate(245,57)"/>
<path d="M0 0 C13.2790353 -1.23048976 13.2790353 -1.23048976 17.34375 1.67578125 C18.99400962 3.72735401 20.49333077 5.84214323 22 8 C27.37633389 12.00099266 33.56150704 11.74453007 40 11 C44.9620016 9.63117197 47.83058306 7.59462919 50.5625 3.25 C51.7265625 1.42578125 51.7265625 1.42578125 53 0 C58.16706312 -0.84551942 60.89228926 0.29742975 66 2 C66 14.54 66 27.08 66 40 C51.81 40 37.62 40 23 40 C22.67 42.97 22.34 45.94 22 49 C19.42183457 54.34969326 14.62323229 57.25517699 9.2265625 59.33984375 C4.32208917 60.79397707 0.55766577 60.45882253 -4.0625 58.4375 C-9.34227645 55.53618595 -12.71828142 51.50771026 -15.4375 46.1875 C-16.3978935 40.74527015 -16.4411787 35.62959683 -13.73046875 30.68359375 C-12.24560566 28.64237689 -10.77225912 26.79716206 -9 25 C-8.45988281 24.45214844 -7.91976562 23.90429688 -7.36328125 23.33984375 C-5 22 -5 22 4 21 C4 14.4 4 7.8 4 1 C2.68 0.67 1.36 0.34 0 0 Z " fill="#8BBCB8" transform="translate(241,121)"/>
<path d="M0 0 C3.48012576 0.19334032 4.73611211 0.71282789 7.125 3.3125 C15.38133239 17.74430051 13.31306327 38.24555705 10.046875 53.94140625 C8.84313945 57.45829035 7.27868328 60.06964783 5 63 C2.25 63.875 2.25 63.875 0 64 C-4 58.375 -4 58.375 -4 55 C-24.79 55 -45.58 55 -67 55 C-67 48.4 -67 41.8 -67 35 C-47.2 35 -27.4 35 -7 35 C-7 29.06 -7 23.12 -7 17 C-5.64694805 10.23474026 -4.22761962 5.39385951 0 0 Z " fill="#010101" transform="translate(154,161)"/>
<path d="M0 0 C14.52 0 29.04 0 44 0 C45.67814367 5.87350285 46.96438787 11.61583442 48.12109375 17.59765625 C49.74328942 23.87735594 51.87873192 27.0962153 57 31 C49.20378306 31.02528819 41.40757664 31.04284068 33.61132812 31.05493164 C30.95735275 31.05997042 28.30338016 31.06680151 25.64941406 31.07543945 C21.84178989 31.08752489 18.03420231 31.09323275 14.2265625 31.09765625 C13.03382721 31.10281754 11.84109192 31.10797882 10.61221313 31.11329651 C9.51122284 31.11337204 8.41023254 31.11344757 7.27587891 31.11352539 C5.8169371 31.11685631 5.8169371 31.11685631 4.32852173 31.12025452 C2 31 2 31 0 30 C0 20.1 0 10.2 0 0 Z " fill="#EDE9FD" transform="translate(257,225)"/>
<path d="M0 0 C1.65148544 0.0001133 1.65148544 0.0001133 3.33633423 0.00022888 C4.52906952 0.00539017 5.72180481 0.01055145 6.95068359 0.01586914 C8.16863617 0.01728409 9.38658875 0.01869904 10.64144897 0.02015686 C14.54403099 0.025769 18.44655632 0.0383236 22.34912109 0.05102539 C24.98974527 0.05603882 27.63037034 0.060602 30.27099609 0.06469727 C36.75539305 0.07574239 43.23974745 0.09301521 49.72412109 0.11352539 C49.39412109 7.70352539 49.06412109 15.29352539 48.72412109 23.11352539 C28.92412109 23.11352539 9.12412109 23.11352539 -11.27587891 23.11352539 C-11.27587891 6.11352539 -11.27587891 6.11352539 -7.27587891 1.11352539 C-4.70454432 -0.1721419 -2.8787079 -0.00657239 0 0 Z " fill="#8ABBB8" transform="translate(98.27587890625,172.886474609375)"/>
<path d="M0 0 C2.5 0.125 2.5 0.125 3.5 1.125 C3.58669432 2.6137186 3.60703494 4.106445 3.59765625 5.59765625 C3.59443359 6.49677734 3.59121094 7.39589844 3.58789062 8.32226562 C3.57532227 9.74055664 3.57532227 9.74055664 3.5625 11.1875 C3.55798828 12.13689453 3.55347656 13.08628906 3.54882812 14.06445312 C3.5370011 16.41803065 3.52052025 18.77148477 3.5 21.125 C0.86 21.125 -1.78 21.125 -4.5 21.125 C-4.50257813 21.69347656 -4.50515625 22.26195312 -4.5078125 22.84765625 C-4.78053526 28.2930206 -5.80117612 31.67012765 -9.62890625 35.6171875 C-13.99226558 39.13338103 -18.54889795 40.85116112 -24.0625 41.625 C-31.09664173 40.60185211 -35.9649255 37.50058647 -40.30859375 31.90234375 C-43.62803409 26.95039177 -43.89850857 22.43326725 -43.17578125 16.66015625 C-41.62246191 10.83296403 -37.47262246 6.37378001 -32.5 3.125 C-26.62860961 1.11698449 -19.8349363 1.1673963 -14.1875 3.75 C-9.47512441 6.43052134 -6.23714107 9.91357679 -4.5 15.125 C-4.40912109 13.62646484 -4.40912109 13.62646484 -4.31640625 12.09765625 C-4.23261719 10.80730469 -4.14882813 9.51695312 -4.0625 8.1875 C-3.98128906 6.89972656 -3.90007812 5.61195313 -3.81640625 4.28515625 C-3.404404 0.1702202 -3.404404 0.1702202 0 0 Z " fill="#FEE9B4" transform="translate(268.5,139.875)"/>
<path d="M0 0 C5.01283217 4.76219056 9.15434375 8.97604688 9.875 16.0625 C9.70892384 21.62605123 7.78303854 26.79798115 4.07421875 30.984375 C-1.32189474 35.72514655 -6.64401518 36.95257596 -13.64453125 36.8203125 C-19.78491302 35.86271534 -23.79818937 32.07681063 -28.0625 27.8125 C-30.71714437 21.46443738 -30.4554491 14.46615886 -28.4375 7.9375 C-21.47204958 -1.27486991 -11.02369795 -5.11814548 0 0 Z " fill="#FEE9B4" transform="translate(414.5,65.625)"/>
<path d="M0 0 C5.28394267 2.94844001 8.91543295 7.80879886 10.8125 13.5 C11.59574646 20.00993371 10.63310288 25.1206849 6.8125 30.5 C3.99131633 33.53993856 1.06379352 36.00946613 -3.1875 36.5 C-3.1875 35.84 -3.1875 35.18 -3.1875 34.5 C-3.8475 34.5 -4.5075 34.5 -5.1875 34.5 C-5.1875 35.49 -5.1875 36.48 -5.1875 37.5 C-10.9450987 37.84545592 -15.26790341 37.88905543 -20.1875 34.5 C-25.38982012 29.44738694 -28.18947922 25.01318287 -28.625 17.6875 C-28.49422962 12.19514407 -26.82308587 8.57983452 -23.1875 4.5 C-16.37557798 -1.49210646 -8.53986174 -3.72797811 0 0 Z " fill="#FEE9B3" transform="translate(211.1875,19.5)"/>
<path d="M0 0 C4.89376865 3.79516752 9.40828075 8.32572719 10.43359375 14.671875 C10.61101958 21.22619392 9.34437782 25.37020775 5.0625 30.375 C-0.61443535 35.95477509 -4.67867822 36.84596156 -12.53125 36.78515625 C-19.12936099 35.99065894 -22.95375966 32.35874034 -27.5 27.8125 C-30.07717944 21.6496796 -30.386435 14.91797888 -27.83203125 8.671875 C-21.81699266 -1.06829473 -10.90030475 -5.67674515 0 0 Z " fill="#FEE9B4" transform="translate(145.9375,91.625)"/>
<path d="M0 0 C4.1645337 3.21926481 7.16752562 7.44007685 8.82421875 12.41015625 C9.36387352 19.42566831 7.55606623 23.97620844 3.51171875 29.66015625 C-1.1991712 34.48060178 -4.90157394 35.62714317 -11.55078125 35.97265625 C-17.17786525 35.85060762 -20.35487414 34.77495803 -24.58984375 31.11328125 C-29.83297335 25.48272828 -30.53015158 20.99373524 -30.45703125 13.42578125 C-29.94529424 7.93882329 -27.73996147 4.8941221 -23.73828125 1.09765625 C-16.34990666 -3.76785872 -7.83899973 -4.43626962 0 0 Z " fill="#FEE9B4" transform="translate(308.17578125,168.58984375)"/>
<path d="M0 0 C3.48012576 0.19334032 4.73611211 0.71282789 7.125 3.3125 C15.38133239 17.74430051 13.31306327 38.24555705 10.046875 53.94140625 C8.84313945 57.45829035 7.27868328 60.06964783 5 63 C2.25 63.875 2.25 63.875 0 64 C-4 58.375 -4 58.375 -4 55 C-24.79 55 -45.58 55 -67 55 C-67 48.4 -67 41.8 -67 35 C-66.67 35 -66.34 35 -66 35 C-66 41.27 -66 47.54 -66 54 C-45.87 54 -25.74 54 -5 54 C-5.66 51.03 -6.32 48.06 -7 45 C-7.37165917 40.37556881 -7.32484863 35.76314366 -7.3125 31.125 C-7.32861328 29.92230469 -7.34472656 28.71960938 -7.36132812 27.48046875 C-7.36679252 17.41505865 -6.35444671 8.10739752 0 0 Z " fill="#505252" transform="translate(154,161)"/>
<path d="M0 0 C18.81 0 37.62 0 57 0 C57 5.94 57 11.88 57 18 C38.19 18 19.38 18 0 18 C0 12.06 0 6.12 0 0 Z " fill="#E6E0FE" transform="translate(385,208)"/>
<path d="M0 0 C5.47853886 3.1897731 10.41171669 8.03124439 12.62890625 14.078125 C12.62890625 15.398125 12.62890625 16.718125 12.62890625 18.078125 C16.25890625 18.078125 19.88890625 18.078125 23.62890625 18.078125 C23.62890625 16.758125 23.62890625 15.438125 23.62890625 14.078125 C25.27890625 14.078125 26.92890625 14.078125 28.62890625 14.078125 C29.12390625 18.038125 29.12390625 18.038125 29.62890625 22.078125 C5.53890625 22.078125 -18.55109375 22.078125 -43.37109375 22.078125 C-43.70109375 19.438125 -44.03109375 16.798125 -44.37109375 14.078125 C-42.39109375 14.078125 -40.41109375 14.078125 -38.37109375 14.078125 C-38.37109375 15.398125 -38.37109375 16.718125 -38.37109375 18.078125 C-35.07109375 18.078125 -31.77109375 18.078125 -28.37109375 18.078125 C-28.55671875 16.840625 -28.55671875 16.840625 -28.74609375 15.578125 C-28.12759818 9.80549972 -24.78523298 6.30449785 -20.61328125 2.45703125 C-14.57009802 -2.00582163 -7.00666397 -2.72417248 0 0 Z " fill="#89BAB7" transform="translate(283.37109375,92.921875)"/>
<path d="M0 0 C2.5 0.125 2.5 0.125 3.5 1.125 C3.58669432 2.6137186 3.60703494 4.106445 3.59765625 5.59765625 C3.59443359 6.49677734 3.59121094 7.39589844 3.58789062 8.32226562 C3.57532227 9.74055664 3.57532227 9.74055664 3.5625 11.1875 C3.55798828 12.13689453 3.55347656 13.08628906 3.54882812 14.06445312 C3.5370011 16.41803065 3.52052025 18.77148477 3.5 21.125 C0.86 21.125 -1.78 21.125 -4.5 21.125 C-4.50257813 21.69347656 -4.50515625 22.26195312 -4.5078125 22.84765625 C-4.78053526 28.2930206 -5.80117612 31.67012765 -9.62890625 35.6171875 C-13.99226558 39.13338103 -18.54889795 40.85116112 -24.0625 41.625 C-31.09664173 40.60185211 -35.9649255 37.50058647 -40.30859375 31.90234375 C-43.62803409 26.95039177 -43.89850857 22.43326725 -43.17578125 16.66015625 C-41.62246191 10.83296403 -37.47262246 6.37378001 -32.5 3.125 C-26.62860961 1.11698449 -19.8349363 1.1673963 -14.1875 3.75 C-9.47512441 6.43052134 -6.23714107 9.91357679 -4.5 15.125 C-4.40912109 13.62646484 -4.40912109 13.62646484 -4.31640625 12.09765625 C-4.23261719 10.80730469 -4.14882813 9.51695312 -4.0625 8.1875 C-3.98128906 6.89972656 -3.90007812 5.61195313 -3.81640625 4.28515625 C-3.404404 0.1702202 -3.404404 0.1702202 0 0 Z M-33.5 9.125 C-37.99557746 13.97549148 -38.8611871 17.1206835 -38.77734375 23.5859375 C-38.22366713 28.65480798 -35.48848103 31.25145862 -31.8125 34.5 C-27.51904096 36.60622519 -24.19600276 36.81633254 -19.5 36.125 C-14.14244904 34.20436852 -11.04162784 31.20825568 -8.5 26.125 C-7.68802728 19.5892852 -8.66368538 15.45321475 -12.5 10.125 C-18.64218691 4.64789065 -26.73470337 5.06582202 -33.5 9.125 Z " fill="#FACE84" transform="translate(268.5,139.875)"/>
<path d="M0 0 C4.89376865 3.79516752 9.40828075 8.32572719 10.43359375 14.671875 C10.61101958 21.22619392 9.34437782 25.37020775 5.0625 30.375 C-0.61443535 35.95477509 -4.67867822 36.84596156 -12.53125 36.78515625 C-19.12936099 35.99065894 -22.95375966 32.35874034 -27.5 27.8125 C-30.07717944 21.6496796 -30.386435 14.91797888 -27.83203125 8.671875 C-21.81699266 -1.06829473 -10.90030475 -5.67674515 0 0 Z M-22.33203125 7.91796875 C-25.10056137 12.19304883 -25.89231759 16.37451199 -24.9375 21.375 C-23.25116829 26.2843207 -20.50790037 29.41135892 -15.86328125 31.71875 C-11.28694208 33.27823272 -7.31555397 32.86137199 -2.75 31.25 C0.60257301 29.01495133 3.32433994 27.04362719 5.0625 23.375 C5.98153513 18.00463821 5.75811394 13.76622789 3.3125 8.875 C-0.49148654 4.64834829 -3.35728291 2.62796246 -9.125 2.0625 C-14.38361087 2.49353368 -18.71413987 3.91497969 -22.33203125 7.91796875 Z " fill="#FBCD83" transform="translate(145.9375,91.625)"/>
<path d="M0 0 C5.01283217 4.76219056 9.15434375 8.97604688 9.875 16.0625 C9.70892384 21.62605123 7.78303854 26.79798115 4.07421875 30.984375 C-1.32189474 35.72514655 -6.64401518 36.95257596 -13.64453125 36.8203125 C-19.78491302 35.86271534 -23.79818937 32.07681063 -28.0625 27.8125 C-30.71714437 21.46443738 -30.4554491 14.46615886 -28.4375 7.9375 C-21.47204958 -1.27486991 -11.02369795 -5.11814548 0 0 Z M-22.8125 7.875 C-25.70371289 12.15827835 -26.14991797 16.32420889 -25.5 21.375 C-24.10650212 25.5387045 -21.92782792 28.41391658 -18.25 30.8125 C-14.40332749 32.69892788 -10.70137651 33.30153931 -6.5 32.375 C-2.50817237 30.62946964 0.56548224 28.3971288 3.5 25.1875 C5.0310527 20.88141427 5.14465044 16.88755311 4.5 12.375 C2.17076821 7.53736475 -0.68147775 4.73880337 -5.5 2.375 C-12.468664 1.26151509 -17.91714443 2.58272371 -22.8125 7.875 Z " fill="#FBCD82" transform="translate(414.5,65.625)"/>
<path d="M0 0 C4.1645337 3.21926481 7.16752562 7.44007685 8.82421875 12.41015625 C9.36387352 19.42566831 7.55606623 23.97620844 3.51171875 29.66015625 C-1.1991712 34.48060178 -4.90157394 35.62714317 -11.55078125 35.97265625 C-17.17786525 35.85060762 -20.35487414 34.77495803 -24.58984375 31.11328125 C-29.83297335 25.48272828 -30.53015158 20.99373524 -30.45703125 13.42578125 C-29.94529424 7.93882329 -27.73996147 4.8941221 -23.73828125 1.09765625 C-16.34990666 -3.76785872 -7.83899973 -4.43626962 0 0 Z M-23.17578125 6.41015625 C-26.34926934 10.87287387 -26.95274959 15.08845527 -26.17578125 20.41015625 C-24.22192204 25.75756039 -21.26341838 28.86633768 -16.17578125 31.41015625 C-10.49246517 32.00122112 -6.02801122 31.68259041 -1.17578125 28.41015625 C3.21652294 23.54300837 4.24793575 20.46845242 4.1640625 14.01953125 C3.61999319 9.84207951 1.91730553 7.21497046 -1.17578125 4.41015625 C-9.39545499 -0.30854534 -16.10606486 0.37542086 -23.17578125 6.41015625 Z " fill="#FACD83" transform="translate(308.17578125,168.58984375)"/>
<path d="M0 0 C6.52540951 -0.54378413 11.66843548 -0.04347646 17 4 C22.05301533 9.45945351 24.38665362 14.12033614 24.27734375 21.58984375 C23.64876418 27.05228876 21.08103069 31.32257688 17 34.9375 C14.48354739 36.66756117 12.98128346 37.65600575 10 38 C10 37.34 10 36.68 10 36 C9.34 36 8.68 36 8 36 C8 36.99 8 37.98 8 39 C2.2424013 39.34545592 -2.08040341 39.38905543 -7 36 C-12.29239558 30.85990357 -15.03691448 26.46285579 -15.3125 19 C-15.24493114 14.88444205 -14.63774113 12.29717641 -12 9 C-10.68 9.33 -9.36 9.66 -8 10 C-8.33 11.03125 -8.66 12.0625 -9 13.125 C-10.48464306 18.53256853 -10.70361629 22.20331438 -7.875 27.1875 C-5.40771315 30.81219388 -3.2650819 32.63517379 1 34 C6.23955679 34.56138108 9.56777353 33.85632372 14 31 C17.3777799 27.34834606 18.83255122 24.74146732 19.3125 19.75 C18.93852374 15.26228483 17.865597 12.45478517 15 9 C10.25451372 5.57883547 5.64677678 5.3860011 0 6 C-3.41471924 6.88460028 -3.41471924 6.88460028 -6 8 C-5.38125 7.4225 -4.7625 6.845 -4.125 6.25 C-2.1662961 4.17607822 -1.1866211 2.54428669 0 0 Z " fill="#FBCC81" transform="translate(198,18)"/>
<path d="M0 0 C0.66 0 1.32 0 2 0 C2.28721924 0.82201904 2.57443848 1.64403809 2.87036133 2.4909668 C3.94506146 5.55829046 5.02470649 8.62381606 6.10766602 11.68823242 C6.57415504 13.0114325 7.03870326 14.33531856 7.5012207 15.65991211 C8.16881566 17.57071404 8.84349829 19.47888829 9.51953125 21.38671875 C9.92276611 22.53358154 10.32600098 23.68044434 10.74145508 24.86206055 C12.78472807 30.34093556 12.78472807 30.34093556 17 34 C17 34.66 17 35.32 17 36 C13.57286781 38.10900443 10.99128926 38.47895471 7 38 C2.01101322 35.45659497 0.19908087 33.05307926 -2 28 C-2.63955213 25.70761356 -3.20097262 23.39216813 -3.6875 21.0625 C-3.93886719 19.89847656 -4.19023437 18.73445313 -4.44921875 17.53515625 C-5.00575381 13.96306954 -5.0967895 10.6088656 -5 7 C-3.68 7 -2.36 7 -1 7 C-0.67 4.69 -0.34 2.38 0 0 Z " fill="#BBBBBB" transform="translate(307,218)"/>
<path d="M0 0 C5.78408559 -0.0494009 11.56804864 -0.08572 17.35229492 -0.10986328 C19.32041564 -0.11992707 21.28852138 -0.13357934 23.2565918 -0.15087891 C26.08385918 -0.17511059 28.91092905 -0.18647923 31.73828125 -0.1953125 C32.61962234 -0.20563507 33.50096344 -0.21595764 34.40901184 -0.22659302 C35.22963608 -0.22674408 36.05026031 -0.22689514 36.89575195 -0.22705078 C37.61745071 -0.231492 38.33914948 -0.23593323 39.0827179 -0.24050903 C41 0 41 0 44 2 C40.54108466 7.62073742 37.4932207 11.18147032 31 13 C24.04604345 13.99208532 18.45093205 13.68108498 12.66796875 9.5078125 C11.02533082 8.02289859 9.71909339 6.50537748 8.375 4.75 C6.21228892 1.72250455 6.21228892 1.72250455 2.6875 1.125 C1.800625 1.08375 0.91375 1.0425 0 1 C0 0.67 0 0.34 0 0 Z " fill="#C9F0ED" transform="translate(250,120)"/>
<path d="M0 0 C3.82210973 0.53879961 5.27023878 2.01246154 7.625 5 C10.58545728 8.94307714 11.92184578 12.1822051 12.515625 17.0546875 C13.11394487 19.4576173 14.24623376 20.31259248 16 22 C15.79085853 25.97368795 14.15493022 28.72075836 12 32 C11.34 31.01 10.68 30.02 10 29 C8.700625 29.99 8.700625 29.99 7.375 31 C3.69403762 33.18131104 2.16955568 33.88713951 -2 33 C-5.15363597 30.12059325 -6.74779536 28.12345701 -7.6875 23.9375 C-6.90626372 20.59949043 -5.6799029 18.96372208 -2.93359375 16.90234375 C0.59492184 15.25570314 4.2021164 15.62021164 8 16 C6.18221573 12.10336669 4.44839977 8.56049971 1.75 5.1875 C0 3 0 3 0 0 Z " fill="#E7E7E7" transform="translate(355,89)"/>
<path d="M0 0 C1.98 0 3.96 0 6 0 C6 1.32 6 2.64 6 4 C26.46 4 46.92 4 68 4 C68 2.68 68 1.36 68 0 C69.65 0 71.3 0 73 0 C73.495 3.96 73.495 3.96 74 8 C49.91 8 25.82 8 1 8 C0.67 5.36 0.34 2.72 0 0 Z " fill="#030303" transform="translate(239,107)"/>
<path d="M0 0 C18.81 0 37.62 0 57 0 C57 5.94 57 11.88 57 18 C38.19 18 19.38 18 0 18 C0 12.06 0 6.12 0 0 Z M2 2 C2 6.62 2 11.24 2 16 C19.49 16 36.98 16 55 16 C55 11.38 55 6.76 55 2 C37.51 2 20.02 2 2 2 Z " fill="#BAA8FF" transform="translate(385,208)"/>
<path d="M0 0 C18.15 0 36.3 0 55 0 C55 0.33 55 0.66 55 1 C42.13 1 29.26 1 16 1 C15.67 1.66 15.34 2.32 15 3 C14.34 2.67 13.68 2.34 13 2 C12.67 4.31 12.34 6.62 12 9 C10.02 9.66 8.04 10.32 6 11 C6.33 11.99 6.66 12.98 7 14 C4.69 14 2.38 14 0 14 C0 9.38 0 4.76 0 0 Z " fill="#F8F9F9" transform="translate(97,221)"/>
<path d="M0 0 C0.99 0 1.98 0 3 0 C2.55239601 5.07284516 0.22802538 7.28777082 -3 11 C-3.33 11.99 -3.66 12.98 -4 14 C-1.05181069 13.51973152 -1.05181069 13.51973152 2 12 C3.06902939 9.69747517 4.07175817 7.3627974 5 5 C7.1875 3.5625 7.1875 3.5625 9 3 C9.33 3.99 9.66 4.98 10 6 C8.5625 8.6875 8.5625 8.6875 7 11 C7.61875 10.505 8.2375 10.01 8.875 9.5 C11 8 11 8 13 8 C13 9.32 13 10.64 13 12 C13.598125 11.505 14.19625 11.01 14.8125 10.5 C17 9 17 9 20 9 C20 9.99 20 10.98 20 12 C21.65 11.34 23.3 10.68 25 10 C25.495 10.495 25.495 10.495 26 11 C28.18292774 11.23481693 30.37203174 11.41363323 32.5625 11.5625 C33.76003906 11.64628906 34.95757812 11.73007813 36.19140625 11.81640625 C37.11824219 11.87699219 38.04507813 11.93757812 39 12 C39 12.33 39 12.66 39 13 C36.72926348 13.16798051 34.45840707 13.33434113 32.1875 13.5 C30.29064453 13.63921875 30.29064453 13.63921875 28.35546875 13.78125 C24.5833615 14.02716153 21.62874716 13.93645088 18 13 C15.96892969 12.900575 15.96892969 12.900575 14 13.625 C13.34 13.74875 12.68 13.8725 12 14 C11.34 13.34 10.68 12.68 10 12 C9.34 12.66 8.68 13.32 8 14 C5.06640625 14.44921875 5.06640625 14.44921875 1.5625 14.6875 C-0.16806641 14.81705078 -0.16806641 14.81705078 -1.93359375 14.94921875 C-5.38306831 15.00634381 -7.74724257 14.08425248 -11 13 C-10.2575 12.67 -9.515 12.34 -8.75 12 C-5.47427407 9.61765387 -4.48644758 7.47754191 -2.89453125 3.83984375 C-2 2 -2 2 0 0 Z " fill="#18171A" transform="translate(402,233)"/>
<path d="M0 0 C6.94871795 0 6.94871795 0 10.67578125 3.43359375 C13.54744926 6.83046358 15 10.52368534 15 15 C10.05 15 5.1 15 0 15 C0 10.05 0 5.1 0 0 Z " fill="#D2C7FE" transform="translate(435,154)"/>
<path d="M0 0 C0 4.95 0 9.9 0 15 C-6.15234375 15.09765625 -6.15234375 15.09765625 -8 15 C-8.33 14.67 -8.66 14.34 -9 14 C-10.99958364 13.95919217 -13.00045254 13.95745644 -15 14 C-14.61104749 8.55466487 -12.7851047 5.87313039 -9 2 C-5.62461317 -0.32057845 -4.46397411 0 0 0 Z " fill="#DCD3FE" transform="translate(434,154)"/>
<path d="M0 0 C0.66 0.33 1.32 0.66 2 1 C1.90460938 1.75925781 1.80921875 2.51851562 1.7109375 3.30078125 C1.60007813 4.29464844 1.48921875 5.28851563 1.375 6.3125 C1.20097656 7.79169922 1.20097656 7.79169922 1.0234375 9.30078125 C0.74523005 12.22657416 0.74523005 12.22657416 3 15 C3.8971875 16.485 3.8971875 16.485 4.8125 18 C7.56402817 21.77352435 9.65255229 23.59690292 14.3203125 24.3984375 C16.54685513 24.65668853 18.76326239 24.85868107 21 25 C20.67 26.65 20.34 28.3 20 30 C14.03766783 30.49686101 9.95096313 29.42449986 5 26 C0.95430578 22.31154148 -2.0327017 18.48135704 -3 13 C-2.91450241 8.04113962 -2.78953994 4.1843099 0 0 Z " fill="#ECC07A" transform="translate(228,151)"/>
<path d="M0 0 C0.99 0 1.98 0 3 0 C3 1.65 3 3.3 3 5 C-13.83 5 -30.66 5 -48 5 C-48 4.01 -48 3.02 -48 2 C-32.16 2 -16.32 2 0 2 C0 1.34 0 0.68 0 0 Z " fill="#C0B0FE" transform="translate(408,168)"/>
<path d="M0 0 C0.99 0.33 1.98 0.66 3 1 C2.67 2.65 2.34 4.3 2 6 C-14.17 6 -30.34 6 -47 6 C-47 5.01 -47 4.02 -47 3 C-31.49 3 -15.98 3 0 3 C0 2.01 0 1.02 0 0 Z " fill="#C0B0FE" transform="translate(408,191)"/>
<path d="M0 0 C2.5 0.125 2.5 0.125 3.5 1.125 C3.58669432 2.6137186 3.60703494 4.106445 3.59765625 5.59765625 C3.59443359 6.49677734 3.59121094 7.39589844 3.58789062 8.32226562 C3.57951172 9.26779297 3.57113281 10.21332031 3.5625 11.1875 C3.55798828 12.13689453 3.55347656 13.08628906 3.54882812 14.06445312 C3.5370011 16.41803065 3.52052025 18.77148477 3.5 21.125 C0.86 21.125 -1.78 21.125 -4.5 21.125 C-4.36179731 17.8121348 -4.21316222 14.49982011 -4.0625 11.1875 C-4.02318359 10.24197266 -3.98386719 9.29644531 -3.94335938 8.32226562 C-3.90146484 7.42314453 -3.85957031 6.52402344 -3.81640625 5.59765625 C-3.77974854 4.76500244 -3.74309082 3.93234863 -3.70532227 3.07446289 C-3.393137 0.11037332 -3.00684637 0.15034232 0 0 Z " fill="#C9F1ED" transform="translate(268.5,139.875)"/>
<path d="M0 0 C1.98 0 3.96 0 6 0 C6.33 1.32 6.66 2.64 7 4 C7.33 2.68 7.66 1.36 8 0 C10.31 0 12.62 0 15 0 C15 4.62 15 9.24 15 14 C14.01 14 13.02 14 12 14 C11.67 13.34 11.34 12.68 11 12 C10.01 12.33 9.02 12.66 8 13 C3.10273519 10.30650435 1.96648848 6.91835833 0.48046875 1.828125 C0.32191406 1.22484375 0.16335938 0.6215625 0 0 Z " fill="#CABDFE" transform="translate(419,170)"/>
<path d="M0 0 C6.83937787 -0.50454427 12.41858616 -0.31454047 18 4 C23.34760456 9.79032563 25.15007733 14.04590134 25 22 C24.67 22 24.34 22 24 22 C24 20.02 24 18.04 24 16 C22.68 16.33 21.36 16.66 20 17 C19.75765625 16.45730469 19.5153125 15.91460937 19.265625 15.35546875 C17.02222342 10.56666922 15.34378217 7.26833117 10.1875 5.3125 C4.65343265 4.52191895 0.20564363 4.96852932 -5 7 C-3.625 5.5 -3.625 5.5 -2 4 C-1.34 4 -0.68 4 0 4 C0 2.68 0 1.36 0 0 Z " fill="#EEC37D" transform="translate(292,166)"/>
<path d="M0 0 C1.98 0 3.96 0 6 0 C6.33 1.32 6.66 2.64 7 4 C7.33 3.01 7.66 2.02 8 1 C9.98 1 11.96 1 14 1 C13.72690064 4.91442413 13.25007787 6.7026101 10.6875 9.75 C8.46465876 11.61098336 6.66133892 12.91575081 4 14 C4.33 12.68 4.66 11.36 5 10 C3.7058258 11.22880216 3.7058258 11.22880216 2 14 C1.34 14 0.68 14 0 14 C0 9.38 0 4.76 0 0 Z " fill="#CABDFE" transform="translate(435,170)"/>
<path d="M0 0 C2.31 0 4.62 0 7 0 C7.02683987 2.97922593 7.04676037 5.95821295 7.0625 8.9375 C7.07087891 9.78763672 7.07925781 10.63777344 7.08789062 11.51367188 C7.09111328 12.32255859 7.09433594 13.13144531 7.09765625 13.96484375 C7.10289307 14.7137085 7.10812988 15.46257324 7.11352539 16.23413086 C7 18 7 18 6 19 C4.33382885 19.04063832 2.66611905 19.042721 1 19 C-0.65497356 15.69005287 -0.10084335 12.00877 -0.0625 8.375 C-0.05798828 7.57320313 -0.05347656 6.77140625 -0.04882812 5.9453125 C-0.03703168 3.96350994 -0.01909605 1.98174567 0 0 Z " fill="#8BBBB8" transform="translate(280,57)"/>
<path d="M0 0 C4.62 0 9.24 0 14 0 C14 2.97 14 5.94 14 9 C9.38 9 4.76 9 0 9 C0 6.03 0 3.06 0 0 Z " fill="#FCFDFD" transform="translate(97,240)"/>
<path d="M0 0 C1.32 0.33 2.64 0.66 4 1 C4 10.9 4 20.8 4 31 C2.68 31.33 1.36 31.66 0 32 C0 21.44 0 10.88 0 0 Z " fill="#0A0A0A" transform="translate(158,177)"/>
<path d="M0 0 C1.32 0.33 2.64 0.66 4 1 C4 10.9 4 20.8 4 31 C2.68 31 1.36 31 0 31 C0 20.77 0 10.54 0 0 Z " fill="#070707" transform="translate(151,177)"/>
<path d="M0 0 C0.66 0 1.32 0 2 0 C2 2.31 2 4.62 2 7 C3.32 7 4.64 7 6 7 C6 7.66 6 8.32 6 9 C4.02 9 2.04 9 0 9 C-0.15855469 9.65484375 -0.31710938 10.3096875 -0.48046875 10.984375 C-5.6225142 31.09801136 -5.6225142 31.09801136 -13 37 C-13.99 36.67 -14.98 36.34 -16 36 C-15.22946289 35.30922363 -14.45892578 34.61844727 -13.66503906 33.90673828 C-10.80296571 30.78509617 -9.72259907 28.47100539 -8.359375 24.4921875 C-7.92882812 23.25855469 -7.49828125 22.02492187 -7.0546875 20.75390625 C-6.61947906 19.46104269 -6.18458644 18.16807277 -5.75 16.875 C-5.30080494 15.57376033 -4.85029535 14.27297366 -4.3984375 12.97265625 C-2.90705813 8.65669474 -1.44400462 4.33201387 0 0 Z " fill="#5B5B5B" transform="translate(228,218)"/>
<path d="M0 0 C1 1 1 1 1.09765625 4.37890625 C1.09098369 5.77347077 1.07902532 7.16801743 1.0625 8.5625 C1.05798828 9.27341797 1.05347656 9.98433594 1.04882812 10.71679688 C1.03700864 12.47790013 1.01907263 14.23896036 1 16 C-1.31 16 -3.62 16 -6 16 C-6 10.72 -6 5.44 -6 0 C-3.49749232 -1.25125384 -2.59701335 -0.83774624 0 0 Z " fill="#C9F1EE" transform="translate(284,145)"/>
<path d="M0 0 C2.64 0 5.28 0 8 0 C8.08107583 1.93681161 8.13922475 3.8745934 8.1875 5.8125 C8.22230469 6.89144531 8.25710938 7.97039062 8.29296875 9.08203125 C8 12 8 12 6.48828125 13.88671875 C5.99714844 14.25410156 5.50601562 14.62148437 5 15 C2.525 14.01 2.525 14.01 0 13 C0 8.71 0 4.42 0 0 Z " fill="#8EBEBB" transform="translate(267,57)"/>
<path d="M0 0 C0.66 0 1.32 0 2 0 C2.28198242 0.81154541 2.56396484 1.62309082 2.85449219 2.45922852 C3.91507124 5.5009015 4.9818532 8.54030941 6.05273438 11.57836914 C6.51287165 12.88773035 6.97060633 14.19793867 7.42578125 15.5090332 C10.9355461 25.62031894 10.9355461 25.62031894 16 35 C12.38392558 33.83769037 10.83714403 31.76302867 9.08203125 28.4765625 C3 14.55595668 3 14.55595668 3 9 C0.36 9 -2.28 9 -5 9 C-5 8.34 -5 7.68 -5 7 C-3.68 7 -2.36 7 -1 7 C-0.67 4.69 -0.34 2.38 0 0 Z " fill="#636363" transform="translate(307,218)"/>
<path d="M0 0 C1.32 0 2.64 0 4 0 C4.33 1.98 4.66 3.96 5 6 C5.99 6 6.98 6 8 6 C8.66 4.02 9.32 2.04 10 0 C10.99 0 11.98 0 13 0 C13.48461538 6.3 13.48461538 6.3 11.3125 9.4375 C9 11 9 11 6.5 11.5 C3.09475625 10.81895125 1.97452017 9.8520847 0 7 C-0.25 3.25 -0.25 3.25 0 0 Z " fill="#1D1D1D" transform="translate(186,152)"/>
<path d="M0 0 C4.09982641 2.8809591 6.32647044 5.24365283 8 10 C8.52327047 15.16729589 8.64872522 19.42013248 6 24 C5.01 24 4.02 24 3 24 C3.20238281 23.2265625 3.40476563 22.453125 3.61328125 21.65625 C5.09772265 15.53578101 5.09772265 15.53578101 4.0546875 9.4921875 C2.80092977 7.55065409 1.47278916 5.77829032 0 4 C-0.33 3.34 -0.66 2.68 -1 2 C-0.67 1.34 -0.34 0.68 0 0 Z " fill="#FEE9B5" transform="translate(148,94)"/>
<path d="M0 0 C0.99 0 1.98 0 3 0 C3.33 0.66 3.66 1.32 4 2 C4.5775 1.649375 5.155 1.29875 5.75 0.9375 C8.4517849 -0.18824371 9.25378869 0.25103328 12 1 C13.67099977 0.68911632 15.33871537 0.35919668 17 0 C17.33 0.33 17.66 0.66 18 1 C19.41327947 1.15620555 20.8335459 1.25056173 22.25390625 1.31640625 C23.10791016 1.35830078 23.96191406 1.40019531 24.84179688 1.44335938 C25.73962891 1.48267578 26.63746094 1.52199219 27.5625 1.5625 C28.46419922 1.60568359 29.36589844 1.64886719 30.29492188 1.69335938 C32.52978485 1.79978142 34.76476308 1.90179988 37 2 C37 2.33 37 2.66 37 3 C29.97195301 3.85373239 23.07721931 4.12109311 16 4 C16 3.34 16 2.68 16 2 C15.03900391 2.2165625 15.03900391 2.2165625 14.05859375 2.4375 C8.91959623 3.54035491 4.25304157 4.22839311 -1 4 C-0.67 2.68 -0.34 1.36 0 0 Z " fill="#2F2F2F" transform="translate(114,228)"/>
<path d="M0 0 C0 1.32 0 2.64 0 4 C0.598125 3.505 1.19625 3.01 1.8125 2.5 C4 1 4 1 7 1 C7 1.99 7 2.98 7 4 C8.65 3.34 10.3 2.68 12 2 C12.33 2.33 12.66 2.66 13 3 C15.18292774 3.23481693 17.37203174 3.41363323 19.5625 3.5625 C21.35880859 3.68818359 21.35880859 3.68818359 23.19140625 3.81640625 C24.11824219 3.87699219 25.04507813 3.93757812 26 4 C26 4.33 26 4.66 26 5 C23.72926348 5.16798051 21.45840707 5.33434113 19.1875 5.5 C17.29064453 5.63921875 17.29064453 5.63921875 15.35546875 5.78125 C11.5833615 6.02716153 8.62874716 5.93645088 5 5 C2.96892969 4.900575 2.96892969 4.900575 1 5.625 C0.34 5.74875 -0.32 5.8725 -1 6 C-1.66 5.34 -2.32 4.68 -3 4 C-4.98 4.99 -4.98 4.99 -7 6 C-7 5.34 -7 4.68 -7 4 C-2.52941176 0 -2.52941176 0 0 0 Z " fill="#2F2E32" transform="translate(415,241)"/>
<path d="M0 0 C0.598125 0.78375 1.19625 1.5675 1.8125 2.375 C3.91085249 5.14574323 3.91085249 5.14574323 7 7 C7 7.66 7 8.32 7 9 C10.63 9.33 14.26 9.66 18 10 C18 10.99 18 11.98 18 13 C11.58091294 13.70026404 8.15043776 12.52057562 2.921875 8.734375 C0.4168697 6.47376046 -0.87095703 4.1613203 -2 1 C-1.34 0.67 -0.68 0.34 0 0 Z " fill="#FEE7B2" transform="translate(120,115)"/>
<path d="M0 0 C1.875 1.5 1.875 1.5 2.625 5.125 C2.7075 6.23875 2.79 7.3525 2.875 8.5 C0.235 8.5 -2.405 8.5 -5.125 8.5 C-5.125 5.86 -5.125 3.22 -5.125 0.5 C-2.125 -0.5 -2.125 -0.5 0 0 Z " fill="#B7A5FE" transform="translate(447.125,160.5)"/>
<path d="M0 0 C1.32 0 2.64 0 4 0 C4.508783 1.55966218 5.00663469 3.12289241 5.5 4.6875 C5.7784375 5.55761719 6.056875 6.42773438 6.34375 7.32421875 C6.99850805 9.99391677 7.11831495 12.26396684 7 15 C5.68 14.67 4.36 14.34 3 14 C2.01 9.38 1.02 4.76 0 0 Z " fill="#5B5B5B" transform="translate(165,161)"/>
<path d="M0 0 C1.32 0 2.64 0 4 0 C5.31626692 3.61973402 6 6.09567131 6 10 C4.02 10 2.04 10 0 10 C0 6.7 0 3.4 0 0 Z " fill="#FEFEFE" transform="translate(180,225)"/>
<path d="M0 0 C0.33 0 0.66 0 1 0 C1 1.98 1 3.96 1 6 C3.64 6 6.28 6 9 6 C8.67 7.32 8.34 8.64 8 10 C8 9.34 8 8.68 8 8 C6.02 8 4.04 8 2 8 C1.67 9.65 1.34 11.3 1 13 C0.67 13 0.34 13 0 13 C0 11.02 0 9.04 0 7 C-1.98 7 -3.96 7 -6 7 C-6 9.31 -6 11.62 -6 14 C-6.33 14 -6.66 14 -7 14 C-7 11.36 -7 8.72 -7 6 C-4.69 6 -2.38 6 0 6 C0 4.02 0 2.04 0 0 Z M-11 14 C-7 15 -7 15 -7 15 Z " fill="#E5DFFE" transform="translate(441,163)"/>
<path d="M0 0 C2.31 0 4.62 0 7 0 C7 2.31 7 4.62 7 7 C5.00045254 7.04254356 2.99958364 7.04080783 1 7 C0 6 0 6 -0.0625 2.9375 C-0.041875 1.968125 -0.02125 0.99875 0 0 Z " fill="#B7A5FE" transform="translate(427,170)"/>
<path d="M0 0 C0.66 0.33 1.32 0.66 2 1 C1.91321237 3.29239061 1.80504727 5.5839807 1.6875 7.875 C1.62949219 9.15117188 1.57148437 10.42734375 1.51171875 11.7421875 C1.34285156 12.81726563 1.17398438 13.89234375 1 15 C0.01 15.66 -0.98 16.32 -2 17 C-2.05418326 14.91695462 -2.09287551 12.83350232 -2.125 10.75 C-2.14820312 9.58984375 -2.17140625 8.4296875 -2.1953125 7.234375 C-2.0103949 4.17213954 -1.60823023 2.55797249 0 0 Z " fill="#FEE9B7" transform="translate(119,99)"/>
<path d="M0 0 C0.66 0.66 1.32 1.32 2 2 C1.9765625 5.2578125 1.9765625 5.2578125 1.625 9.125 C1.51414062 10.40632813 1.40328125 11.68765625 1.2890625 13.0078125 C1.19367188 13.99523437 1.09828125 14.98265625 1 16 C0.34 16 -0.32 16 -1 16 C-1.33 16.66 -1.66 17.32 -2 18 C-2.054348 15.9377952 -2.09294961 13.87517184 -2.125 11.8125 C-2.14820313 10.66394531 -2.17140625 9.51539062 -2.1953125 8.33203125 C-2.00484152 5.08259628 -1.39360127 2.91339479 0 0 Z " fill="#FEE8B3" transform="translate(387,72)"/>
<path d="M0 0 C1.98 0 3.96 0 6 0 C5.25 5.75 5.25 5.75 3 8 C0.875 7.625 0.875 7.625 -1 7 C-0.67 4.69 -0.34 2.38 0 0 Z " fill="#B5A2FF" transform="translate(443,171)"/>
<path d="M0 0 C1.65 0.33 3.3 0.66 5 1 C4.67 3.31 4.34 5.62 4 8 C2.02 8 0.04 8 -2 8 C-1.125 2.25 -1.125 2.25 0 0 Z " fill="#B7A4FE" transform="translate(421,160)"/>
<path d="M0 0 C0.99 0.33 1.98 0.66 3 1 C2.34 5.62 1.68 10.24 1 15 C0.01 14.67 -0.98 14.34 -2 14 C-2.05437607 12.41705218 -2.09296271 10.83355744 -2.125 9.25 C-2.14820313 8.36828125 -2.17140625 7.4865625 -2.1953125 6.578125 C-1.99139502 3.8864142 -1.36551721 2.30095026 0 0 Z " fill="#FEE9B6" transform="translate(185,28)"/>
<path d="M0 0 C1.98 0 3.96 0 6 0 C6.33 2.64 6.66 5.28 7 8 C5.68 8.33 4.36 8.66 3 9 C2.01 6.03 1.02 3.06 0 0 Z " fill="#B5A3FE" transform="translate(419,170)"/>
<path d="M0 0 C1.32 0 2.64 0 4 0 C6.60018816 3.90028225 6.15085514 7.47434569 6 12 C5.01 11.67 4.02 11.34 3 11 C2.05078125 8.49609375 2.05078125 8.49609375 1.3125 5.4375 C1.06113281 4.42558594 0.80976563 3.41367188 0.55078125 2.37109375 C0.36902344 1.58863281 0.18726563 0.80617187 0 0 Z " fill="#5D5D5D" transform="translate(172,161)"/>
<path d="M0 0 C0.66 0.33 1.32 0.66 2 1 C1.835 1.639375 1.67 2.27875 1.5 2.9375 C0.84067485 6.97586652 0.91996221 10.91807258 1 15 C0.01 15.33 -0.98 15.66 -2 16 C-3.19937786 9.62740199 -3.06475363 5.76173683 0 0 Z " fill="#F2DDAB" transform="translate(228,151)"/>
<path d="M0 0 C2.35694954 0.09031574 4.71153582 0.24688128 7.0625 0.4375 C8.35285156 0.53933594 9.64320313 0.64117187 10.97265625 0.74609375 C12.47119141 0.87177734 12.47119141 0.87177734 14 1 C14 1.99 14 2.98 14 4 C12.2507786 4.08142927 10.50045458 4.13938541 8.75 4.1875 C7.77546875 4.22230469 6.8009375 4.25710937 5.796875 4.29296875 C2.62531258 3.96075202 1.32959693 3.11327721 -1 1 C-0.67 0.67 -0.34 0.34 0 0 Z " fill="#FEE7B1" transform="translate(395,98)"/>
<path d="M0 0 C0.66 0 1.32 0 2 0 C3.49821059 3.37097383 4 5.20442119 4 9 C1.03 9 -1.94 9 -5 9 C-5 8.34 -5 7.68 -5 7 C-3.68 7 -2.36 7 -1 7 C-0.67 4.69 -0.34 2.38 0 0 Z " fill="#565656" transform="translate(307,218)"/>
<path d="M0 0 C0.99 0 1.98 0 3 0 C2.67 4.62 2.34 9.24 2 14 C1.01 14 0.02 14 -1 14 C-1.02705729 12.22925083 -1.04642195 10.45838289 -1.0625 8.6875 C-1.07410156 7.70136719 -1.08570313 6.71523437 -1.09765625 5.69921875 C-1 3 -1 3 0 0 Z " fill="#FBE3AD" transform="translate(279,176)"/>
<path d="M0 0 C5.841744 -0.35050464 9.8531808 -0.16727335 15 3 C14.67 3.66 14.34 4.32 14 5 C13.360625 4.855625 12.72125 4.71125 12.0625 4.5625 C8.06155212 3.82763202 4.04495104 3.41418889 0 3 C0 2.01 0 1.02 0 0 Z " fill="#FBE4AD" transform="translate(293,166)"/>
<path d="M0 0 C1.98 0 3.96 0 6 0 C6.04254356 1.99954746 6.04080783 4.00041636 6 6 C5 7 5 7 2.4375 7.0625 C1.2309375 7.0315625 1.2309375 7.0315625 0 7 C0 4.69 0 2.38 0 0 Z " fill="#B8A6FE" transform="translate(435,170)"/>
<path d="M0 0 C1.4540625 0.0309375 1.4540625 0.0309375 2.9375 0.0625 C2.9375 2.0425 2.9375 4.0225 2.9375 6.0625 C0.6275 6.0625 -1.6825 6.0625 -4.0625 6.0625 C-4.105221 4.39638095 -4.10313832 2.72867115 -4.0625 1.0625 C-3.0625 0.0625 -3.0625 0.0625 0 0 Z " fill="#B6A3FF" transform="translate(431.0625,161.9375)"/>
<path d="M0 0 C1.32 0.99 2.64 1.98 4 3 C3.43454163 6.95820859 2.19097652 9.6659053 0 13 C-2 10 -2 10 -1.7578125 7.51953125 C-1.54898437 6.62621094 -1.34015625 5.73289062 -1.125 4.8125 C-0.92132813 3.91144531 -0.71765625 3.01039062 -0.5078125 2.08203125 C-0.34023438 1.39496094 -0.17265625 0.70789063 0 0 Z " fill="#6A6A6A" transform="translate(367,108)"/>
<path d="M0 0 C1.65 0 3.3 0 5 0 C5.33 2.31 5.66 4.62 6 7 C4.02 7 2.04 7 0 7 C0 4.69 0 2.38 0 0 Z " fill="#B9A7FE" transform="translate(435,162)"/>
<path d="M0 0 C0.33 0 0.66 0 1 0 C1.3690205 9.41002278 1.3690205 9.41002278 -1 14 C-1.99 13.67 -2.98 13.34 -4 13 C-3.71812064 11.20676747 -3.4241719 9.41542874 -3.125 7.625 C-2.96257812 6.62726562 -2.80015625 5.62953125 -2.6328125 4.6015625 C-2 2 -2 2 0 0 Z " fill="#FEE8B3" transform="translate(221,33)"/>
<path d="M0 0 C0.99 0 1.98 0 3 0 C3.05447047 1.41623216 3.09300508 2.83308191 3.125 4.25 C3.14820313 5.03890625 3.17140625 5.8278125 3.1953125 6.640625 C2.9828378 9.20731941 2.28654105 10.7916067 1 13 C0.34 12.67 -0.32 12.34 -1 12 C-0.67 8.04 -0.34 4.08 0 0 Z " fill="#FBE3AD" transform="translate(261,158)"/>
<path d="M0 0 C0.33 0 0.66 0 1 0 C1.1799928 5.21979128 0.97094808 9.07262981 -1 14 C-1.99 14 -2.98 14 -4 14 C-3.34 10.04 -2.68 6.08 -2 2 C-1.34 2 -0.68 2 0 2 C0 1.34 0 0.68 0 0 Z " fill="#FEEBBB" transform="translate(423,78)"/>
<path d="M0 0 C3.63 0.66 7.26 1.32 11 2 C11 2.99 11 3.98 11 5 C6.07872966 5.16682272 2.49656104 5.24828052 -2 3 C-1.34 2.01 -0.68 1.02 0 0 Z " fill="#FEE8B4" transform="translate(194,52)"/>
<path d="M0 0 C0.66 0 1.32 0 2 0 C2 1.32 2 2.64 2 4 C3.32 4 4.64 4 6 4 C6 4.66 6 5.32 6 6 C4.68 6 3.36 6 2 6 C2 7.32 2 8.64 2 10 C1.34 10 0.68 10 0 10 C0 8.68 0 7.36 0 6 C-1.32 6 -2.64 6 -4 6 C-4 5.34 -4 4.68 -4 4 C-2.68 4 -1.36 4 0 4 C0 2.68 0 1.36 0 0 Z " fill="#FDA424" transform="translate(394,121)"/>
<path d="M0 0 C0.66 0 1.32 0 2 0 C2 1.32 2 2.64 2 4 C3.32 4 4.64 4 6 4 C6 4.66 6 5.32 6 6 C4.68 6 3.36 6 2 6 C2 7.32 2 8.64 2 10 C1.34 10 0.68 10 0 10 C0 8.68 0 7.36 0 6 C-1.32 6 -2.64 6 -4 6 C-4 5.34 -4 4.68 -4 4 C-2.68 4 -1.36 4 0 4 C0 2.68 0 1.36 0 0 Z " fill="#FDA425" transform="translate(334,55)"/>
<path d="M0 0 C0.66 0 1.32 0 2 0 C2.125 5.75 2.125 5.75 1 8 C1.66 8.66 2.32 9.32 3 10 C-0.3 10.33 -3.6 10.66 -7 11 C-7 10.34 -7 9.68 -7 9 C-5.02 8.34 -3.04 7.68 -1 7 C-0.67 4.69 -0.34 2.38 0 0 Z " fill="#252525" transform="translate(110,223)"/>
<path d="M0 0 C1.85772162 0.08984301 3.71247985 0.24611861 5.5625 0.4375 C7.08037109 0.59025391 7.08037109 0.59025391 8.62890625 0.74609375 C9.80259766 0.87177734 9.80259766 0.87177734 11 1 C11 1.99 11 2.98 11 4 C9.56344146 4.08131463 8.1255517 4.13933559 6.6875 4.1875 C5.48673828 4.23970703 5.48673828 4.23970703 4.26171875 4.29296875 C1.52148416 3.93801608 0.70828921 3.10633718 -1 1 C-0.67 0.67 -0.34 0.34 0 0 Z " fill="#F8E1AB" transform="translate(236,176)"/>
<path d="M0 0 C1.60379341 -0.05416188 3.20811406 -0.09286638 4.8125 -0.125 C5.70582031 -0.14820312 6.59914062 -0.17140625 7.51953125 -0.1953125 C10 0 10 0 13 2 C9.64672361 4.23551759 9.09256343 4.17283528 5.3125 3.625 C4.50425781 3.51414062 3.69601563 3.40328125 2.86328125 3.2890625 C2.24839844 3.19367188 1.63351563 3.09828125 1 3 C0.67 2.01 0.34 1.02 0 0 Z " fill="#FEE7B1" transform="translate(132,90)"/>
<path d="M0 0 C1.4370809 -0.05422947 2.87475462 -0.09289723 4.3125 -0.125 C5.11300781 -0.14820312 5.91351563 -0.17140625 6.73828125 -0.1953125 C9 0 9 0 12 2 C12 2.66 12 3.32 12 4 C8.37 3.67 4.74 3.34 1 3 C0.67 2.01 0.34 1.02 0 0 Z " fill="#FEEBBC" transform="translate(198,18)"/>
<path d="M0 0 C0.99 0.33 1.98 0.66 3 1 C1.80100302 4.0831351 0.52299523 7.06279492 -1 10 C-3 9 -3 9 -3.875 7.25 C-4 5 -4 5 -2.0625 2.25 C-1.381875 1.5075 -0.70125 0.765 0 0 Z " fill="#4C4A51" transform="translate(409,236)"/>
<path d="M0 0 C0.66 0 1.32 0 2 0 C2 1.65 2 3.3 2 5 C-2.62 5 -7.24 5 -12 5 C-12 4.34 -12 3.68 -12 3 C-8.04 3 -4.08 3 0 3 C0 2.01 0 1.02 0 0 Z " fill="#B7A5FE" transform="translate(371,218)"/>
<path d="M0 0 C3.63 0.33 7.26 0.66 11 1 C11 1.99 11 2.98 11 4 C9.54176788 4.0270043 8.08339325 4.04639787 6.625 4.0625 C5.81289063 4.07410156 5.00078125 4.08570313 4.1640625 4.09765625 C2 4 2 4 0 3 C0 2.01 0 1.02 0 0 Z " fill="#F8E1AC" transform="translate(288,200)"/>
<path d="M0 0 C3.39417765 3.12621626 5.6062718 5.56541027 7 10 C6.01 10.33 5.02 10.66 4 11 C3.13341385 9.73760288 2.28207941 8.46472499 1.4375 7.1875 C0.72400391 6.12595703 0.72400391 6.12595703 -0.00390625 5.04296875 C-1 3 -1 3 0 0 Z " fill="#F8E6B3" transform="translate(257,146)"/>
<path d="M0 0 C1.4370809 -0.05422947 2.87475462 -0.09289723 4.3125 -0.125 C5.11300781 -0.14820313 5.91351563 -0.17140625 6.73828125 -0.1953125 C9 0 9 0 12 2 C11.67 2.66 11.34 3.32 11 4 C7.37 3.67 3.74 3.34 0 3 C0 2.01 0 1.02 0 0 Z " fill="#FDE7B1" transform="translate(241,142)"/>
<path d="M0 0 C0.66 0 1.32 0 2 0 C4.39731331 3.19641774 6.38479725 6.00118212 7 10 C3.21282653 8.51218185 1.22592999 6.38011591 -1 3 C-0.67 2.01 -0.34 1.02 0 0 Z " fill="#F9E3AE" transform="translate(228,167)"/>
<path d="M0 0 C1.32 0.33 2.64 0.66 4 1 C4.33 3.31 4.66 5.62 5 8 C3.68 8 2.36 8 1 8 C0.67 5.36 0.34 2.72 0 0 Z " fill="#5C5C5C" transform="translate(355,138)"/>
<path d="M0 0 C4.21422242 2.88341534 5.76075855 5.04303419 7 10 C5.25 9.875 5.25 9.875 3 9 C0.6875 6.125 0.6875 6.125 -1 3 C-0.67 2.01 -0.34 1.02 0 0 Z " fill="#FEE9B4" transform="translate(416,68)"/>
<path d="M0 0 C2.64752004 2.57784846 4.94432065 4.91648098 7 8 C7 8.99 7 9.98 7 11 C6.01 11 5.02 11 4 11 C0 4.5 0 4.5 0 0 Z " fill="#FEE9B5" transform="translate(214,22)"/>
<path d="M0 0 C0.928125 1.175625 0.928125 1.175625 1.875 2.375 C3.89858661 4.96837647 3.89858661 4.96837647 6 7 C6 7.99 6 8.98 6 10 C2.20620942 8.50958227 0.31656242 6.30937488 -2 3 C-2 2.34 -2 1.68 -2 1 C-1.34 0.67 -0.68 0.34 0 0 Z " fill="#F7E2AE" transform="translate(281,191)"/>
<path d="M0 0 C0.66 0 1.32 0 2 0 C2.08121924 1.60332791 2.13929134 3.20784026 2.1875 4.8125 C2.22230469 5.70582031 2.25710938 6.59914062 2.29296875 7.51953125 C1.95081002 10.41647515 1.24606427 11.22555028 -1 13 C-2.07310858 9.72814447 -1.89263102 7.57052408 -1.0625 4.25 C-0.86785156 3.45078125 -0.67320312 2.6515625 -0.47265625 1.828125 C-0.31667969 1.22484375 -0.16070312 0.6215625 0 0 Z " fill="#FAE5B1" transform="translate(314,182)"/>
<path d="M0 0 C0.66 0 1.32 0 2 0 C3.3726682 1.97321053 4.70427617 3.97543152 6 6 C6.66 6.66 7.32 7.32 8 8 C7.34 8.66 6.68 9.32 6 10 C2.26115668 7.34345343 0.35021826 5.41889613 -1 1 C-0.67 0.67 -0.34 0.34 0 0 Z " fill="#FEE9B5" transform="translate(387,89)"/>
<path d="M0 0 C3.53586014 3.17320782 5.58578031 5.16743695 6 10 C5.01 10.495 5.01 10.495 4 11 C3.13341385 9.73760288 2.28207941 8.46472499 1.4375 7.1875 C0.72400391 6.12595703 0.72400391 6.12595703 -0.00390625 5.04296875 C-1 3 -1 3 0 0 Z " fill="#F7E3AF" transform="translate(309,170)"/>
<path d="M0 0 C0.99 0.66 1.98 1.32 3 2 C1.90081184 2.98475214 0.7954398 3.96260473 -0.3125 4.9375 C-0.92738281 5.48277344 -1.54226562 6.02804688 -2.17578125 6.58984375 C-4 8 -4 8 -7 9 C-6.82374165 6.62051228 -6.30280227 5.29774151 -4.59765625 3.62109375 C-3.09350908 2.37884514 -1.54870149 1.18623944 0 0 Z " fill="#FEE8B4" transform="translate(216,47)"/>
<path d="M0 0 C0.99 0.33 1.98 0.66 3 1 C-1.43076923 6.78461538 -1.43076923 6.78461538 -4.3125 7.875 C-4.869375 7.91625 -5.42625 7.9575 -6 8 C-5.66354211 4.85972637 -4.94763914 3.94901705 -2.625 1.6875 C-1.75875 1.130625 -0.8925 0.57375 0 0 Z " fill="#FEE9B4" transform="translate(149,119)"/>
<path d="M0 0 C0.99 0.33 1.98 0.66 3 1 C0.34345343 4.73884332 -1.58110387 6.64978174 -6 8 C-5.66354211 4.85972637 -4.94763914 3.94901705 -2.625 1.6875 C-1.75875 1.130625 -0.8925 0.57375 0 0 Z " fill="#F9E4B0" transform="translate(310,195)"/>
<path d="M0 0 C0 0.99 0 1.98 0 3 C-2.25 4.75 -2.25 4.75 -5 6 C-7.3125 5.6875 -7.3125 5.6875 -9 5 C-4.16129032 0 -4.16129032 0 0 0 Z " fill="#F7E0AB" transform="translate(292,167)"/>
<path d="M0 0 C0.99 0.33 1.98 0.66 3 1 C0.34345343 4.73884332 -1.58110387 6.64978174 -6 8 C-5.66354211 4.85972637 -4.94763914 3.94901705 -2.625 1.6875 C-1.75875 1.130625 -0.8925 0.57375 0 0 Z " fill="#FEEAB7" transform="translate(417,93)"/>
<path d="M0 0 C0.33 1.32 0.66 2.64 1 4 C-3.43076923 7.07692308 -3.43076923 7.07692308 -6.3125 6.6875 C-6.869375 6.460625 -7.42625 6.23375 -8 6 C-5.51047079 3.33264727 -3.36591866 1.44253657 0 0 Z " fill="#FEE9B5" transform="translate(130,90)"/>
<path d="M0 0 C0.33 0.99 0.66 1.98 1 3 C-1.8125 5.0625 -1.8125 5.0625 -5 7 C-5.99 6.67 -6.98 6.34 -8 6 C-3.375 1.125 -3.375 1.125 0 0 Z " fill="#FEE8B4" transform="translate(398,64)"/>
<path d="M0 0 C2.64752004 2.57784846 4.94432065 4.91648098 7 8 C6.34 8.66 5.68 9.32 5 10 C3.96704564 8.90716423 2.94892165 7.80029421 1.9375 6.6875 C1.36902344 6.07261719 0.80054688 5.45773438 0.21484375 4.82421875 C-0.38650391 3.92123047 -0.38650391 3.92123047 -1 3 C-0.67 2.01 -0.34 1.02 0 0 Z " fill="#FEE9B5" transform="translate(186,44)"/>
<path d="M0 0 C0.66 0 1.32 0 2 0 C2 2.31 2 4.62 2 7 C3.32 7.33 4.64 7.66 6 8 C3.36 8.33 0.72 8.66 -2 9 C-1.34 6.03 -0.68 3.06 0 0 Z " fill="#585858" transform="translate(228,218)"/>
<path d="M0 0 C0 0.99 0 1.98 0 3 C-2.8125 4.5625 -2.8125 4.5625 -6 6 C-6.99 5.67 -7.98 5.34 -9 5 C-4.5 0 -4.5 0 0 0 Z " fill="#F7E1AC" transform="translate(240,143)"/>
<path d="M0 0 C-0.125 1.75 -0.125 1.75 -1 4 C-4.0625 6.25 -4.0625 6.25 -7 8 C-7.33 7.01 -7.66 6.02 -8 5 C-2.25 0 -2.25 0 0 0 Z " fill="#FAE5B1" transform="translate(260,171)"/>
<path d="M0 0 C2 2 2 2 2.1953125 3.9453125 C2.13020833 5.96354167 2.06510417 7.98177083 2 10 C0 7 0 7 0 3 C-1.98 3 -3.96 3 -6 3 C-6 2.34 -6 1.68 -6 1 C-3.125 0.375 -3.125 0.375 0 0 Z " fill="#E1DAFE" transform="translate(425,167)"/>
<path d="M0 0 C3.63 0 7.26 0 11 0 C11.33 0.66 11.66 1.32 12 2 C11.34 2.66 10.68 3.32 10 4 C7.6171875 3.7578125 7.6171875 3.7578125 4.875 3.125 C3.96492188 2.92132813 3.05484375 2.71765625 2.1171875 2.5078125 C1.41851562 2.34023437 0.71984375 2.17265625 0 2 C0 1.34 0 0.68 0 0 Z " fill="#FEE9B5" transform="translate(400,64)"/>
<path d="M0 0 C0.99 0.33 1.98 0.66 3 1 C5.22574335 1.22451458 7.45581519 1.40782878 9.6875 1.5625 C10.86699219 1.64628906 12.04648437 1.73007813 13.26171875 1.81640625 C14.61716797 1.90728516 14.61716797 1.90728516 16 2 C16 2.33 16 2.66 16 3 C13.75135275 3.22245975 11.50097377 3.42746557 9.25 3.625 C7.37054688 3.79902344 7.37054688 3.79902344 5.453125 3.9765625 C2.16413097 3.99888599 0.68979224 3.77961002 -2 2 C-1.34 1.34 -0.68 0.68 0 0 Z " fill="#202023" transform="translate(425,243)"/>
<path d="M0 0 C0.99 0 1.98 0 3 0 C3.33 0.66 3.66 1.32 4 2 C4.598125 1.649375 5.19625 1.29875 5.8125 0.9375 C8 0 8 0 11 1 C6.89542386 3.98514628 4.02254631 4.2954439 -1 4 C-0.67 2.68 -0.34 1.36 0 0 Z " fill="#242424" transform="translate(114,228)"/>
<path d="M0 0 C1.67542976 0.28604898 3.34385343 0.61781233 5 1 C5 1.99 5 2.98 5 4 C3.02 4.33 1.04 4.66 -1 5 C-1 1 -1 1 0 0 Z " fill="#FCFCFC" transform="translate(356,111)"/>
<path d="M0 0 C1.32 0 2.64 0 4 0 C3.67 2.31 3.34 4.62 3 7 C2.01 7 1.02 7 0 7 C0 4.69 0 2.38 0 0 Z " fill="#666666" transform="translate(359,105)"/>
<path d="M0 0 C0.33 1.32 0.66 2.64 1 4 C2.32 4 3.64 4 5 4 C5 4.66 5 5.32 5 6 C3.68 6 2.36 6 1 6 C0.67 7.32 0.34 8.64 0 10 C0 8.68 0 7.36 0 6 C-1.32 6 -2.64 6 -4 6 C-4 5.34 -4 4.68 -4 4 C-2.68 4 -1.36 4 0 4 C0 2.68 0 1.36 0 0 Z " fill="#FD9D15" transform="translate(185,90)"/>
<path d="M0 0 C0.99 0 1.98 0 3 0 C2.25 4.75 2.25 4.75 0 7 C-0.99 7.33 -1.98 7.66 -3 8 C-1.125 1.125 -1.125 1.125 0 0 Z " fill="#6A6872" transform="translate(402,233)"/>
<path d="M0 0 C1.27066587 2.54133174 1 4.12791367 1 7 C-1 9.1875 -1 9.1875 -3 11 C-4 8 -4 8 -3.22265625 5.95703125 C-2.83980469 5.24933594 -2.45695312 4.54164063 -2.0625 3.8125 C-1.68222656 3.09707031 -1.30195313 2.38164062 -0.91015625 1.64453125 C-0.60980469 1.10183594 -0.30945313 0.55914062 0 0 Z " fill="#232225" transform="translate(400,235)"/>
<path d="M0 0 C0 0.33 0 0.66 0 1 C-1.98 1 -3.96 1 -6 1 C-6.33 2.65 -6.66 4.3 -7 6 C-7.99 6 -8.98 6 -10 6 C-9.625 3.5625 -9.625 3.5625 -9 1 C-6.04335481 -0.4783226 -3.25770263 -0.06032783 0 0 Z " fill="#6A6A6A" transform="translate(234,226)"/>
<path d="M0 0 C2.33944736 0.28730055 4.6739143 0.61936779 7 1 C5.68 2.32 4.36 3.64 3 5 C3 4.34 3 3.68 3 3 C1.68 2.34 0.36 1.68 -1 1 C-0.67 0.67 -0.34 0.34 0 0 Z " fill="#FDDC9F" transform="translate(187,25)"/>
<path d="M0 0 C-2 2 -2 2 -5.625 2.125 C-6.73875 2.08375 -7.8525 2.0425 -9 2 C-9 1.34 -9 0.68 -9 0 C-5.52176885 -1.15941038 -3.54104422 -0.70820884 0 0 Z " fill="#F1F1F1" transform="translate(113,233)"/>
<path d="M0 0 C0.33 0.99 0.66 1.98 1 3 C3.01508358 3.73323796 3.01508358 3.73323796 5 4 C4.01 4 3.02 4 2 4 C1.67 5.32 1.34 6.64 1 8 C0.01 7.67 -0.98 7.34 -2 7 C-1.34 4.69 -0.68 2.38 0 0 Z " fill="#CFCFCF" transform="translate(112,224)"/>
<path d="M0 0 C0.33 0 0.66 0 1 0 C1 1.98 1 3.96 1 6 C-0.65 6 -2.3 6 -4 6 C-1.125 1.125 -1.125 1.125 0 0 Z " fill="#B6A4FF" transform="translate(433,154)"/>
<path d="M0 0 C-0.3125 1.875 -0.3125 1.875 -1 4 C-1.99 4.66 -2.98 5.32 -4 6 C-4.99 5.67 -5.98 5.34 -7 5 C-2.25 0 -2.25 0 0 0 Z " fill="#666767" transform="translate(219,249)"/>
<path d="M0 0 C2.475 0.495 2.475 0.495 5 1 C5.33 1.99 5.66 2.98 6 4 C4.68 4.33 3.36 4.66 2 5 C1.34 3.35 0.68 1.7 0 0 Z " fill="#B8A6FE" transform="translate(439,155)"/>
<path d="M0 0 C0.66 0.33 1.32 0.66 2 1 C0.75 3 0.75 3 -1 5 C-2.32 5 -3.64 5 -5 5 C-4 2 -4 2 -2.0625 0.75 C-1.381875 0.5025 -0.70125 0.255 0 0 Z " fill="#B9A8FE" transform="translate(429,154)"/>
<path d="M0 0 C3.75 0.8125 3.75 0.8125 7 2 C7 2.33 7 2.66 7 3 C3.37 3 -0.26 3 -4 3 C-2.68 2.01 -1.36 1.02 0 0 Z " fill="#F0EDF9" transform="translate(324,253)"/>
<path d="M0 0 C0.99 0.33 1.98 0.66 3 1 C3 2.98 3 4.96 3 7 C1.68 5.68 0.36 4.36 -1 3 C-0.67 2.01 -0.34 1.02 0 0 Z " fill="#FCD694" transform="translate(413,66)"/>
<path d="M0 0 C0.99 0.99 1.98 1.98 3 3 C0.53721199 5.46278801 -1.70676982 5.99771255 -5 7 C-4.0409375 6.1028125 -4.0409375 6.1028125 -3.0625 5.1875 C-0.79689611 3.09189663 -0.79689611 3.09189663 0 0 Z " fill="#FBCC80" transform="translate(197,19)"/>
</svg>
