<svg width="195" height="35" viewBox="0 0 195 35" fill="none" xmlns="http://www.w3.org/2000/svg">
<mask id="mask0_4_19981" style="mask-type:luminance" maskUnits="userSpaceOnUse" x="0" y="0" width="195" height="35">
<path d="M195 0H0V35H195V0Z" fill="white"/>
</mask>
<g mask="url(#mask0_4_19981)">
<mask id="mask1_4_19981" style="mask-type:alpha" maskUnits="userSpaceOnUse" x="0" y="0" width="195" height="35">
<path d="M65.04 26.92L59.4102 9.41003V9.18005H63.6099L66.98 20.87L70.7798 9.68994H73.7202L77.4902 20.87L80.8599 9.18005H85.0601V9.41003L79.4302 26.92H75.9302L72.2402 16.02L68.5601 26.92H65.04ZM90.5801 12.2C90.1501 12.62 89.6102 12.83 88.9702 12.83C88.3402 12.83 87.7999 12.62 87.3599 12.2C86.9399 11.77 86.73 11.25 86.73 10.63C86.73 10.02 86.9501 9.49996 87.3901 9.07996C87.8201 8.65996 88.3502 8.44995 88.9702 8.44995C89.6102 8.44995 90.1501 8.65996 90.5801 9.07996C91.0201 9.49996 91.2402 10.02 91.2402 10.63C91.2402 11.25 91.0201 11.77 90.5801 12.2ZM90.8301 14.5V26.92H87.1401V14.5H90.8301ZM99.27 27.25C96.92 27.25 94.9401 26.69 93.3301 25.58L94.6899 22.6899C95.9799 23.6499 97.5298 24.13 99.3398 24.13C100.9 24.13 101.68 23.83 101.68 23.22C101.68 23.12 101.66 23.04 101.61 22.97C101.57 22.88 101.51 22.82 101.41 22.77C101.32 22.72 101.22 22.67 101.1 22.64C101 22.61 100.86 22.5801 100.68 22.5601C100.49 22.5301 100.32 22.5 100.15 22.49C99.9999 22.47 99.78 22.45 99.5 22.41C99.23 22.38 98.98 22.3401 98.77 22.3101C97.07 22.0901 95.7999 21.69 94.9399 21.12C94.0899 20.54 93.6602 19.6501 93.6602 18.4301C93.6602 17.1101 94.1599 16.0701 95.1699 15.3101C96.1799 14.5501 97.5801 14.17 99.3701 14.17C102.14 14.17 104.04 15.2 105.08 17.24L102.01 18.58C101.69 17.67 100.84 17.22 99.4702 17.22C98.8202 17.22 98.2999 17.31 97.9399 17.49C97.5699 17.68 97.3799 17.9101 97.3799 18.1801C97.3799 18.4301 97.5602 18.62 97.9102 18.74C98.2802 18.84 98.9499 18.96 99.9199 19.09C100.86 19.23 101.62 19.37 102.21 19.52C102.8 19.66 103.36 19.87 103.9 20.16C104.45 20.43 104.85 20.8 105.1 21.27C105.35 21.73 105.48 22.29 105.48 22.97C105.48 24.39 104.93 25.4599 103.82 26.1899C102.73 26.8999 101.21 27.25 99.27 27.25ZM115.58 14.17C117.02 14.17 118.16 14.61 118.98 15.49C119.8 16.37 120.21 17.5599 120.21 19.0699V26.92H116.51V19.4C116.51 18.82 116.33 18.36 115.96 18.03C115.59 17.67 115.1 17.49 114.48 17.49C113.4 17.49 112.44 18.03 111.58 19.09V26.92H107.89V9.18005H111.58V16.02C112.61 14.79 113.94 14.17 115.58 14.17ZM134.96 26.92L129.33 9.41003V9.18005H133.52L136.89 20.87L140.69 9.68994H143.63L147.41 20.87L150.78 9.18005H154.98V9.41003L149.34 26.92H145.85L142.15 16.02L138.48 26.92H134.96ZM166.82 25.38C165.57 26.63 163.87 27.25 161.74 27.25C159.61 27.25 157.92 26.63 156.66 25.38C155.41 24.13 154.78 22.57 154.78 20.71C154.78 18.85 155.41 17.3 156.66 16.05C157.92 14.8 159.61 14.17 161.74 14.17C163.87 14.17 165.57 14.8 166.82 16.05C168.1 17.3 168.73 18.85 168.73 20.71C168.73 22.55 168.1 24.11 166.82 25.38ZM159.43 23.1C160.02 23.69 160.79 23.98 161.74 23.98C162.7 23.98 163.47 23.6799 164.06 23.0699C164.64 22.4599 164.94 21.68 164.94 20.71C164.94 19.73 164.64 18.95 164.06 18.36C163.49 17.75 162.72 17.4399 161.74 17.4399C160.79 17.4399 160.02 17.75 159.43 18.36C158.86 18.95 158.58 19.73 158.58 20.71C158.58 21.69 158.86 22.49 159.43 23.1ZM174.94 16.73C175.93 15.01 177.46 14.17 179.52 14.2V18.05C178.55 17.98 177.63 18.17 176.78 18.61C175.92 19.03 175.31 19.61 174.94 20.36V26.92H171.25V14.5H174.94V16.73ZM189.83 19.65L194.36 26.75V26.92H190.41L187.42 22.36L185.31 24.74V26.92H181.61V9.18005H185.31V20L189.91 14.5H194.28V14.66L189.83 19.65Z" fill="white"/>
<path d="M0 0L20.2002 34.1L24.1299 27.51C18.6999 18.34 13.2101 9.17 7.81006 0H0Z" fill="white"/>
<path d="M47.1689 0H31.5791L25.9893 9.09998L29.7891 15.6899L35.3291 6.59998H39.519C36.679 11.41 33.8388 16.2401 31.0088 21.0601C26.8388 14.0401 22.669 7.02 18.519 0H10.6992L31.0288 34.11L51.229 0H47.1689Z" fill="white"/>
</mask>
<g mask="url(#mask1_4_19981)">
<path d="M225.39 -13.8999H-8.33984V49.3701H225.39V-13.8999Z" fill="url(#paint0_linear_4_19981)"/>
<path d="M225.39 -13.8999H-8.33984V49.3701H225.39V-13.8999Z" fill="white"/>
</g>
</g>
<defs>
<linearGradient id="paint0_linear_4_19981" x1="-8.33984" y1="17.7301" x2="225.39" y2="17.7301" gradientUnits="userSpaceOnUse">
<stop stop-color="#4DFFD2"/>
<stop offset="1" stop-color="#FF4D6C"/>
</linearGradient>
</defs>
</svg>
