<svg width="25" height="25" viewBox="0 0 25 25" fill="none" xmlns="http://www.w3.org/2000/svg">
<path d="M22.8438 0.588989H2.67383C1.53383 0.588989 0.59375 1.51998 0.59375 2.66998V22.84C0.59375 23.99 1.52383 24.92 2.67383 24.92H22.8438C24.0037 24.92 24.9338 23.99 24.9338 22.84V2.66998C24.9338 1.51998 24.0037 0.588989 22.8438 0.588989ZM2.67383 1.46802H22.8438C23.5037 1.46802 24.0538 2.01098 24.0538 2.66998V4.35498H1.47375V2.66998C1.47375 2.01098 2.01383 1.46802 2.67383 1.46802ZM22.8438 24.05H2.67383C2.00383 24.05 1.47375 23.5 1.47375 22.84V5.23401H24.0538V22.85C24.0538 23.51 23.5138 24.05 22.8438 24.05ZM11.0737 14.332C11.1537 14.413 11.2037 14.523 11.2037 14.64C11.2037 14.757 11.1537 14.867 11.0737 14.947L7.21375 18.8C7.12374 18.89 7.01381 18.93 6.90381 18.93C6.79381 18.93 6.68376 18.89 6.60376 18.8C6.43376 18.63 6.43376 18.35 6.60376 18.18L10.1438 14.632L6.60376 11.087C6.43376 10.918 6.43376 10.64 6.60376 10.464C6.77376 10.288 7.04376 10.296 7.22375 10.464L11.0737 14.332ZM6.82373 2.91199C6.82373 2.54499 7.11376 2.25201 7.48376 2.25201C7.85376 2.25201 8.1438 2.54499 8.1438 2.91199C8.1438 3.27799 7.85376 3.57098 7.48376 3.57098C7.11376 3.57098 6.82373 3.27799 6.82373 2.91199ZM2.69373 2.91199C2.69373 2.54499 2.99376 2.25201 3.35376 2.25201H3.36377C3.73377 2.25201 4.0238 2.54499 4.0238 2.91199C4.0238 3.27799 3.73377 3.57098 3.36377 3.57098H3.35376C2.99376 3.57098 2.69373 3.27799 2.69373 2.91199ZM4.75378 2.91199C4.75378 2.54499 5.04382 2.25201 5.41382 2.25201H5.42383C5.79383 2.25201 6.08374 2.54499 6.08374 2.91199C6.08374 3.27799 5.79383 3.57098 5.42383 3.57098C5.05383 3.57098 4.75378 3.27799 4.75378 2.91199ZM19.6438 18.5C19.6438 18.74 19.4537 18.94 19.2037 18.94H12.6038C12.3538 18.94 12.1638 18.74 12.1638 18.5C12.1638 18.26 12.3538 18.06 12.6038 18.06H19.2037C19.4537 18.06 19.6438 18.25 19.6438 18.5Z" fill="#1A73E8"/>
</svg>
